# xmcd
#
# Track frame offsets:
#	150
#	21214
#	34033
#	53229
#	67261
#	91203
#	103618
#	118451
#	136726
#	160913
#	163298
#	182079
#	195955
#	208675
#
# Disc length: 2917 seconds
#
# Revision: 0
# Processed by: cddbd v1.5.1PL2 Copyright (c) Steve Scherf et al.
# Submitted via: dBpowerAMP V4.0
#
DISCID=c60b630e
DTITLE=Tom Hall - Right Down There On Lee Street          On Lee Street
DYEAR=2005
DGENRE=Blues
TTITLE0=Sweet Home Chicago
TTITLE1=Worn Out Engine
TTITLE2=Payday
TTITLE3=Buck Dancers Choice
TTITLE4=I Believe I'll Dust My Broom
TTITLE5=Untrue Blues
TTITLE6=Police Dog Blues
TTITLE7=Phonograph Blues
TTITLE8=Hesitation Blues
TTITLE9=With Apologies to Furry Lewis
TTITLE10=Come On Into My Kitchen
TTITLE11=M. and O. Blues
TTITLE12=God Moves On the Water
TTITLE13=Lonesome Am I
EXTD=
EXTT0=
EXTT1=
EXTT2=
EXTT3=
EXTT4=
EXTT5=
EXTT6=
EXTT7=
EXTT8=
EXTT9=
EXTT10=
EXTT11=
EXTT12=
EXTT13=
PLAYORDER=
